<svg width="40" height="40" viewBox="0 0 40 40" fill="none" xmlns="http://www.w3.org/2000/svg">
<mask id="mask0_42_279" style="mask-type:alpha" maskUnits="userSpaceOnUse" x="0" y="0" width="40" height="40">
<rect width="40" height="40" fill="#D9D9D9"/>
</mask>
<g mask="url(#mask0_42_279)">
<path d="M5 36.6389V3.36111L7.5 5.86111L10 3.36111L12.5 5.86111L15 3.36111L17.5 5.86111L20 3.36111L22.5 5.86111L25 3.36111L27.5 5.86111L30 3.36111L32.5 5.86111L35 3.36111V36.6389L32.5 34.1389L30 36.6389L27.5 34.1389L25 36.6389L22.5 34.1389L20 36.6389L17.5 34.143L15 36.6389L12.5 34.143L10 36.6389L7.5 34.143L5 36.6389ZM9.91667 27.8889H30.1945V25.1111H9.91667V27.8889ZM9.91667 21.3889H30.1945V18.6111H9.91667V21.3889ZM9.91667 14.8611H30.1945V12.0833H9.91667V14.8611Z" fill="#007BFF"/>
</g>
</svg>