<svg width="40" height="40" viewBox="0 0 40 40" fill="none" xmlns="http://www.w3.org/2000/svg">
<mask id="mask0_42_261" style="mask-type:alpha" maskUnits="userSpaceOnUse" x="0" y="0" width="40" height="40">
<rect width="40" height="40" fill="#D9D9D9"/>
</mask>
<g mask="url(#mask0_42_261)">
<path d="M7.77775 35C7.01386 35 6.35993 34.728 5.81596 34.184C5.27199 33.6401 5 32.9861 5 32.2222V7.77775C5 7.01386 5.27199 6.35993 5.81596 5.81596C6.35993 5.27199 7.01386 5 7.77775 5H32.2222C32.9861 5 33.6401 5.27199 34.184 5.81596C34.728 6.35993 35 7.01386 35 7.77775V12.8889H32.2222V7.77775H7.77775V32.2222H32.2222V27.1389H35V32.2222C35 32.9861 34.728 33.6401 34.184 34.184C33.6401 34.728 32.9861 35 32.2222 35H7.77775ZM22.1667 27.9722C21.2958 27.9722 20.5503 27.6649 19.9302 27.0502C19.3101 26.4355 19 25.6965 19 24.8333V15.1945C19 14.3313 19.3101 13.5923 19.9302 12.9776C20.5503 12.3629 21.2958 12.0556 22.1667 12.0556H33.5555C34.4264 12.0556 35.1719 12.3629 35.792 12.9776C36.4121 13.5923 36.7222 14.3313 36.7222 15.1945V24.8333C36.7222 25.6965 36.4121 26.4355 35.792 27.0502C35.1719 27.6649 34.4264 27.9722 33.5555 27.9722H22.1667ZM33.9445 25.1945V14.8333H21.7778V25.1945H33.9445ZM27.0065 22.6111C27.7337 22.6111 28.3496 22.3546 28.8542 21.8415C29.3588 21.3283 29.6111 20.7052 29.6111 19.9722C29.6111 19.2546 29.3542 18.6447 28.8403 18.1424C28.3264 17.64 27.713 17.3889 27 17.3889C26.2871 17.3889 25.6736 17.64 25.1597 18.1424C24.6458 18.6447 24.3889 19.2546 24.3889 19.9722C24.3889 20.7052 24.6434 21.3283 25.1524 21.8414C25.6614 22.3546 26.2794 22.6111 27.0065 22.6111Z" fill="#1C1B1F"/>
</g>
</svg>