<svg width="40" height="40" viewBox="0 0 40 40" fill="none" xmlns="http://www.w3.org/2000/svg">
<mask id="mask0_42_267" style="mask-type:alpha" maskUnits="userSpaceOnUse" x="0" y="0" width="40" height="40">
<rect width="40" height="40" fill="#D9D9D9"/>
</mask>
<g mask="url(#mask0_42_267)">
<path d="M7.77775 35C7.04628 35 6.40046 34.7245 5.84029 34.1736C5.2801 33.6227 5 32.9722 5 32.2222V7.77775C5 7.04628 5.2801 6.40046 5.84029 5.84029C6.40046 5.2801 7.04628 5 7.77775 5H32.2222C32.9722 5 33.6227 5.2801 34.1736 5.84029C34.7245 6.40046 35 7.04628 35 7.77775V9.27779H22.1667C20.4352 9.27779 19.0116 9.83567 17.8959 10.9514C16.7801 12.0671 16.2223 13.4815 16.2223 15.1945V24.8333C16.2223 26.5463 16.7801 27.9606 17.8959 29.0764C19.0116 30.1921 20.4352 30.75 22.1667 30.75H35V32.2222C35 32.9722 34.7245 33.6227 34.1736 34.1736C33.6227 34.7245 32.9722 35 32.2222 35H7.77775ZM22.1667 27.9722C21.2315 27.9722 20.4699 27.6782 19.882 27.0903C19.294 26.5023 19 25.75 19 24.8333V15.1945C19 14.2593 19.294 13.5023 19.882 12.9236C20.4699 12.3449 21.2315 12.0556 22.1667 12.0556H33.5278C34.463 12.0556 35.2245 12.3449 35.8125 12.9236C36.4005 13.5023 36.6945 14.2593 36.6945 15.1945V24.8333C36.6945 25.75 36.4005 26.5023 35.8125 27.0903C35.2245 27.6782 34.463 27.9722 33.5278 27.9722H22.1667ZM27 22.6111C27.7037 22.6111 28.3148 22.3519 28.8333 21.8333C29.3519 21.3148 29.6111 20.6944 29.6111 19.9722C29.6111 19.2685 29.3519 18.662 28.8333 18.1528C28.3148 17.6435 27.7037 17.3889 27 17.3889C26.2963 17.3889 25.6852 17.6435 25.1667 18.1528C24.6481 18.662 24.3889 19.2685 24.3889 19.9722C24.3889 20.6944 24.6481 21.3148 25.1667 21.8333C25.6852 22.3519 26.2963 22.6111 27 22.6111Z" fill="#1C1B1F"/>
</g>
</svg>