<svg width="40" height="40" viewBox="0 0 40 40" fill="none" xmlns="http://www.w3.org/2000/svg">
<path d="M16.7102 24.4588V24.0966C16.7173 22.8537 16.8274 21.8629 17.0405 21.1243C17.2607 20.3857 17.5803 19.7891 17.9993 19.3345C18.4183 18.88 18.9226 18.468 19.5121 18.0987C19.9524 17.8146 20.3466 17.5199 20.6946 17.2145C21.0426 16.9091 21.3196 16.5717 21.5256 16.2024C21.7315 15.826 21.8345 15.407 21.8345 14.9453C21.8345 14.4553 21.7173 14.0256 21.483 13.6562C21.2486 13.2869 20.9325 13.0028 20.5348 12.804C20.1442 12.6051 19.7109 12.5057 19.2351 12.5057C18.7734 12.5057 18.3366 12.6087 17.9247 12.8146C17.5128 13.0135 17.1754 13.3118 16.9126 13.7095C16.6499 14.1001 16.5078 14.5866 16.4865 15.169H12.1399C12.1754 13.7486 12.5163 12.5767 13.1626 11.6534C13.8089 10.723 14.6648 10.0305 15.7301 9.57599C16.7955 9.11435 17.9709 8.88352 19.2564 8.88352C20.6697 8.88352 21.9197 9.1179 23.0064 9.58665C24.093 10.0483 24.9453 10.7195 25.5632 11.6001C26.1811 12.4808 26.4901 13.5426 26.4901 14.7855C26.4901 15.6165 26.3516 16.3551 26.0746 17.0014C25.8047 17.6406 25.4247 18.2088 24.9347 18.706C24.4446 19.196 23.8658 19.6399 23.1982 20.0376C22.6371 20.3714 22.1754 20.7195 21.8132 21.0817C21.4581 21.4439 21.1918 21.8629 21.0142 22.3388C20.8438 22.8146 20.755 23.4006 20.7479 24.0966V24.4588H16.7102ZM18.8196 31.277C18.1094 31.277 17.5021 31.0284 16.9979 30.5312C16.5007 30.027 16.2557 29.4233 16.2628 28.7202C16.2557 28.0241 16.5007 27.4276 16.9979 26.9304C17.5021 26.4332 18.1094 26.1847 18.8196 26.1847C19.4943 26.1847 20.0874 26.4332 20.5987 26.9304C21.1101 27.4276 21.3693 28.0241 21.3764 28.7202C21.3693 29.1889 21.245 29.6186 21.0036 30.0092C20.7692 30.3928 20.4602 30.7017 20.0767 30.9361C19.6932 31.1634 19.2741 31.277 18.8196 31.277Z" fill="black"/>
<path d="M35.5556 4.44444V35.5556H4.44444V4.44444H35.5556ZM35.5556 0H4.44444C2 0 0 2 0 4.44444V35.5556C0 38 2 40 4.44444 40H35.5556C38 40 40 38 40 35.5556V4.44444C40 2 38 0 35.5556 0Z" fill="black"/>
</svg>