<svg width="40" height="40" viewBox="0 0 40 40" fill="none" xmlns="http://www.w3.org/2000/svg">
<mask id="mask0_42_255" style="mask-type:alpha" maskUnits="userSpaceOnUse" x="0" y="0" width="40" height="40">
<rect width="40" height="40" fill="#D9D9D9"/>
</mask>
<g mask="url(#mask0_42_255)">
<path d="M11.6945 30C11.2778 30 10.8912 29.8171 10.5347 29.4514C10.1783 29.0857 10 28.6945 10 28.2778V24.4444H31.1111V10H35C35.4167 10 35.7987 10.1829 36.1459 10.5486C36.4931 10.9144 36.6667 11.3148 36.6667 11.75V36.6389L30.0278 30H11.6945ZM3.33337 28.3333V5.05555C3.33337 4.63889 3.50699 4.24769 3.85421 3.88197C4.20143 3.51622 4.58337 3.33334 5.00004 3.33334H26.6389C27.0741 3.33334 27.4653 3.51158 27.8125 3.86805C28.1598 4.22455 28.3334 4.62039 28.3334 5.05555V19.9445C28.3334 20.3611 28.1598 20.7523 27.8125 21.1181C27.4653 21.4838 27.0741 21.6667 26.6389 21.6667H10L3.33337 28.3333Z" fill="#1C1B1F"/>
</g>
</svg>