<svg width="40" height="40" viewBox="0 0 40 40" fill="none" xmlns="http://www.w3.org/2000/svg">
<path d="M15.2216 9.18182L19.6214 16.6179H19.7919L24.2131 9.18182H29.4226L22.7642 20.0909L29.5717 31H24.2663L19.7919 23.5533H19.6214L15.147 31H9.86293L16.6918 20.0909L9.99077 9.18182H15.2216Z" fill="black"/>
<path d="M35.5556 4.44444V35.5556H4.44444V4.44444H35.5556ZM35.5556 0H4.44444C2 0 0 2 0 4.44444V35.5556C0 38 2 40 4.44444 40H35.5556C38 40 40 38 40 35.5556V4.44444C40 2 38 0 35.5556 0Z" fill="black"/>
</svg>