<svg width="40" height="40" viewBox="0 0 40 40" fill="none" xmlns="http://www.w3.org/2000/svg">
<path d="M29.946 20.0909C29.946 22.4702 29.495 24.4943 28.593 26.1634C27.6982 27.8324 26.4766 29.1072 24.9283 29.9879C23.3871 30.8615 21.6541 31.2983 19.7294 31.2983C17.7905 31.2983 16.0504 30.858 14.5092 29.9773C12.968 29.0966 11.75 27.8217 10.8551 26.1527C9.96023 24.4837 9.51278 22.4631 9.51278 20.0909C9.51278 17.7116 9.96023 15.6875 10.8551 14.0185C11.75 12.3494 12.968 11.0781 14.5092 10.2045C16.0504 9.32386 17.7905 8.88352 19.7294 8.88352C21.6541 8.88352 23.3871 9.32386 24.9283 10.2045C26.4766 11.0781 27.6982 12.3494 28.593 14.0185C29.495 15.6875 29.946 17.7116 29.946 20.0909ZM25.2692 20.0909C25.2692 18.5497 25.0384 17.25 24.5767 16.1918C24.1222 15.1335 23.4794 14.331 22.6484 13.7841C21.8175 13.2372 20.8445 12.9638 19.7294 12.9638C18.6143 12.9638 17.6413 13.2372 16.8104 13.7841C15.9794 14.331 15.3331 15.1335 14.8714 16.1918C14.4169 17.25 14.1896 18.5497 14.1896 20.0909C14.1896 21.6321 14.4169 22.9318 14.8714 23.9901C15.3331 25.0483 15.9794 25.8509 16.8104 26.3977C17.6413 26.9446 18.6143 27.218 19.7294 27.218C20.8445 27.218 21.8175 26.9446 22.6484 26.3977C23.4794 25.8509 24.1222 25.0483 24.5767 23.9901C25.0384 22.9318 25.2692 21.6321 25.2692 20.0909Z" fill="black"/>
<path d="M35.5556 4.44444V35.5556H4.44444V4.44444H35.5556ZM35.5556 0H4.44444C2 0 0 2 0 4.44444V35.5556C0 38 2 40 4.44444 40H35.5556C38 40 40 38 40 35.5556V4.44444C40 2 38 0 35.5556 0Z" fill="black"/>
</svg>